<svg width="243" height="40" viewBox="0 0 243 40" fill="none" xmlns="http://www.w3.org/2000/svg">
<path d="M72.6619 16.4347H69.4744C69.3835 15.9119 69.2159 15.4489 68.9716 15.0455C68.7273 14.6364 68.4233 14.2898 68.0597 14.0057C67.696 13.7216 67.2813 13.5085 66.8153 13.3665C66.3551 13.2188 65.858 13.1449 65.3239 13.1449C64.375 13.1449 63.5341 13.3835 62.8011 13.8608C62.0682 14.3324 61.4943 15.0256 61.0795 15.9403C60.6648 16.8494 60.4574 17.9602 60.4574 19.2727C60.4574 20.608 60.6648 21.733 61.0795 22.6477C61.5 23.5568 62.0739 24.2443 62.8011 24.7102C63.5341 25.1705 64.3722 25.4006 65.3153 25.4006C65.8381 25.4006 66.3267 25.3324 66.7812 25.196C67.2415 25.054 67.6534 24.8466 68.017 24.5739C68.3864 24.3011 68.696 23.9659 68.946 23.5682C69.2017 23.1705 69.3778 22.7159 69.4744 22.2045L72.6619 22.2216C72.5426 23.0511 72.2841 23.8295 71.8864 24.5568C71.4943 25.2841 70.9801 25.9261 70.3438 26.483C69.7074 27.0341 68.9631 27.4659 68.1108 27.7784C67.2585 28.0852 66.3125 28.2386 65.2727 28.2386C63.7386 28.2386 62.3693 27.8835 61.1648 27.1733C59.9602 26.4631 59.0114 25.4375 58.3182 24.0966C57.625 22.7557 57.2784 21.1477 57.2784 19.2727C57.2784 17.392 57.6278 15.7841 58.3267 14.4489C59.0256 13.108 59.9773 12.0824 61.1818 11.3722C62.3864 10.6619 63.75 10.3068 65.2727 10.3068C66.2443 10.3068 67.1477 10.4432 67.983 10.7159C68.8182 10.9886 69.5625 11.3892 70.2159 11.9176C70.8693 12.4403 71.4063 13.0824 71.8267 13.8438C72.2528 14.5994 72.5313 15.4631 72.6619 16.4347ZM81.2514 28.2557C79.973 28.2557 78.865 27.9744 77.9275 27.4119C76.99 26.8494 76.2628 26.0625 75.7457 25.0511C75.2343 24.0398 74.9787 22.858 74.9787 21.5057C74.9787 20.1534 75.2343 18.9687 75.7457 17.9517C76.2628 16.9347 76.99 16.1449 77.9275 15.5824C78.865 15.0199 79.973 14.7386 81.2514 14.7386C82.5298 14.7386 83.6378 15.0199 84.5753 15.5824C85.5128 16.1449 86.2372 16.9347 86.7486 17.9517C87.2656 18.9687 87.5241 20.1534 87.5241 21.5057C87.5241 22.858 87.2656 24.0398 86.7486 25.0511C86.2372 26.0625 85.5128 26.8494 84.5753 27.4119C83.6378 27.9744 82.5298 28.2557 81.2514 28.2557ZM81.2684 25.7841C81.9616 25.7841 82.5412 25.5937 83.0071 25.2131C83.473 24.8267 83.8196 24.3097 84.0468 23.6619C84.2798 23.0142 84.3963 22.2926 84.3963 21.4972C84.3963 20.696 84.2798 19.9716 84.0468 19.3239C83.8196 18.6705 83.473 18.1506 83.0071 17.7642C82.5412 17.3778 81.9616 17.1847 81.2684 17.1847C80.5582 17.1847 79.9673 17.3778 79.4957 17.7642C79.0298 18.1506 78.6804 18.6705 78.4474 19.3239C78.2201 19.9716 78.1065 20.696 78.1065 21.4972C78.1065 22.2926 78.2201 23.0142 78.4474 23.6619C78.6804 24.3097 79.0298 24.8267 79.4957 25.2131C79.9673 25.5937 80.5582 25.7841 81.2684 25.7841ZM93.348 20.3295V28H90.2627V14.9091H93.2116V17.1335H93.365C93.6661 16.4006 94.1463 15.8182 94.8053 15.3864C95.4701 14.9545 96.2911 14.7386 97.2684 14.7386C98.1718 14.7386 98.9588 14.9318 99.6292 15.3182C100.305 15.7045 100.828 16.2642 101.197 16.9972C101.572 17.7301 101.757 18.6193 101.751 19.6648V28H98.6661V20.142C98.6661 19.267 98.4389 18.5824 97.9843 18.0881C97.5355 17.5937 96.9133 17.3466 96.1178 17.3466C95.5781 17.3466 95.098 17.4659 94.6775 17.7045C94.2627 17.9375 93.936 18.2756 93.6974 18.7188C93.4644 19.1619 93.348 19.6989 93.348 20.3295ZM110.718 28.2557C109.411 28.2557 108.289 27.9688 107.351 27.3949C106.42 26.821 105.701 26.0284 105.195 25.017C104.695 24 104.445 22.8295 104.445 21.5057C104.445 20.1761 104.701 19.0028 105.212 17.9858C105.724 16.9631 106.445 16.1676 107.377 15.5994C108.315 15.0256 109.423 14.7386 110.701 14.7386C111.763 14.7386 112.704 14.9347 113.522 15.3267C114.346 15.7131 115.002 16.2614 115.491 16.9716C115.979 17.6761 116.258 18.5 116.326 19.4432H113.377C113.258 18.8125 112.974 18.2869 112.525 17.8665C112.082 17.4403 111.488 17.2273 110.744 17.2273C110.113 17.2273 109.559 17.3977 109.082 17.7386C108.604 18.0739 108.232 18.5568 107.965 19.1875C107.704 19.8182 107.573 20.5739 107.573 21.4545C107.573 22.3466 107.704 23.1136 107.965 23.7557C108.226 24.392 108.593 24.8835 109.065 25.2301C109.542 25.571 110.101 25.7415 110.744 25.7415C111.198 25.7415 111.604 25.6562 111.962 25.4858C112.326 25.3097 112.63 25.0568 112.874 24.7273C113.119 24.3977 113.286 23.9972 113.377 23.5256H116.326C116.252 24.4517 115.979 25.2727 115.508 25.9886C115.036 26.6989 114.394 27.2557 113.582 27.6591C112.769 28.0568 111.815 28.2557 110.718 28.2557ZM124.775 28.2557C123.462 28.2557 122.329 27.983 121.374 27.4375C120.425 26.8864 119.695 26.108 119.184 25.1023C118.672 24.0909 118.417 22.9006 118.417 21.5312C118.417 20.1847 118.672 19.0028 119.184 17.9858C119.701 16.9631 120.422 16.1676 121.349 15.5994C122.275 15.0256 123.363 14.7386 124.613 14.7386C125.42 14.7386 126.181 14.8693 126.897 15.1307C127.618 15.3864 128.255 15.7841 128.806 16.3239C129.363 16.8636 129.8 17.5511 130.118 18.3864C130.437 19.2159 130.596 20.2045 130.596 21.3523V22.2983H119.866V20.2188H127.638C127.633 19.6278 127.505 19.1023 127.255 18.642C127.005 18.1761 126.655 17.8097 126.207 17.5426C125.763 17.2756 125.246 17.142 124.655 17.142C124.025 17.142 123.471 17.2955 122.993 17.6023C122.516 17.9034 122.144 18.3011 121.877 18.7955C121.616 19.2841 121.482 19.821 121.476 20.4062V22.2216C121.476 22.983 121.616 23.6364 121.894 24.1818C122.172 24.7216 122.562 25.1364 123.062 25.4261C123.562 25.7102 124.147 25.8523 124.817 25.8523C125.266 25.8523 125.672 25.7898 126.036 25.6648C126.4 25.5341 126.715 25.3438 126.982 25.0938C127.249 24.8438 127.451 24.5341 127.587 24.1648L130.468 24.4886C130.286 25.25 129.94 25.9148 129.428 26.483C128.922 27.0455 128.275 27.483 127.485 27.7955C126.695 28.1023 125.792 28.2557 124.775 28.2557ZM137.093 28.2642C136.263 28.2642 135.516 28.1165 134.851 27.821C134.192 27.5199 133.67 27.0767 133.283 26.4915C132.903 25.9062 132.712 25.1847 132.712 24.3267C132.712 23.5881 132.849 22.9773 133.121 22.4943C133.394 22.0114 133.766 21.625 134.238 21.3352C134.709 21.0455 135.241 20.8267 135.832 20.679C136.428 20.5256 137.045 20.4148 137.681 20.3466C138.448 20.267 139.07 20.196 139.547 20.1335C140.025 20.0653 140.371 19.9631 140.587 19.8267C140.809 19.6847 140.92 19.4659 140.92 19.1705V19.1193C140.92 18.4773 140.729 17.9801 140.349 17.6278C139.968 17.2756 139.42 17.0994 138.704 17.0994C137.948 17.0994 137.349 17.2642 136.905 17.5938C136.468 17.9233 136.172 18.3125 136.019 18.7614L133.138 18.3523C133.366 17.5568 133.741 16.892 134.263 16.358C134.786 15.8182 135.425 15.4148 136.181 15.1477C136.937 14.875 137.772 14.7386 138.687 14.7386C139.317 14.7386 139.945 14.8125 140.57 14.9602C141.195 15.108 141.766 15.3523 142.283 15.6932C142.8 16.0284 143.215 16.4858 143.528 17.0653C143.846 17.6449 144.005 18.3693 144.005 19.2386V28H141.039V26.2017H140.937C140.749 26.5653 140.485 26.9062 140.144 27.2244C139.809 27.5369 139.386 27.7898 138.874 27.983C138.368 28.1705 137.775 28.2642 137.093 28.2642ZM137.894 25.9972C138.513 25.9972 139.05 25.875 139.505 25.6307C139.959 25.3807 140.309 25.0511 140.553 24.642C140.803 24.233 140.928 23.7869 140.928 23.304V21.7614C140.832 21.8409 140.667 21.9148 140.434 21.983C140.207 22.0511 139.951 22.1108 139.667 22.1619C139.383 22.2131 139.101 22.2585 138.823 22.2983C138.545 22.3381 138.303 22.3722 138.099 22.4006C137.638 22.4631 137.226 22.5653 136.863 22.7074C136.499 22.8494 136.212 23.0483 136.002 23.304C135.792 23.554 135.687 23.8778 135.687 24.2756C135.687 24.8438 135.894 25.2727 136.309 25.5625C136.724 25.8523 137.252 25.9972 137.894 25.9972ZM150.312 10.5455V28H147.227V10.5455H150.312ZM159.4 28.2557C158.088 28.2557 156.954 27.983 156 27.4375C155.051 26.8864 154.321 26.108 153.809 25.1023C153.298 24.0909 153.042 22.9006 153.042 21.5312C153.042 20.1847 153.298 19.0028 153.809 17.9858C154.327 16.9631 155.048 16.1676 155.974 15.5994C156.9 15.0256 157.988 14.7386 159.238 14.7386C160.045 14.7386 160.807 14.8693 161.523 15.1307C162.244 15.3864 162.88 15.7841 163.432 16.3239C163.988 16.8636 164.426 17.5511 164.744 18.3864C165.062 19.2159 165.221 20.2045 165.221 21.3523V22.2983H154.491V20.2188H162.264C162.258 19.6278 162.13 19.1023 161.88 18.642C161.63 18.1761 161.281 17.8097 160.832 17.5426C160.389 17.2756 159.872 17.142 159.281 17.142C158.65 17.142 158.096 17.2955 157.619 17.6023C157.142 17.9034 156.77 18.3011 156.503 18.7955C156.241 19.2841 156.108 19.821 156.102 20.4062V22.2216C156.102 22.983 156.241 23.6364 156.52 24.1818C156.798 24.7216 157.187 25.1364 157.687 25.4261C158.187 25.7102 158.773 25.8523 159.443 25.8523C159.892 25.8523 160.298 25.7898 160.662 25.6648C161.025 25.5341 161.341 25.3438 161.608 25.0938C161.875 24.8438 162.077 24.5341 162.213 24.1648L165.094 24.4886C164.912 25.25 164.565 25.9148 164.054 26.483C163.548 27.0455 162.9 27.483 162.111 27.7955C161.321 28.1023 160.417 28.2557 159.4 28.2557ZM172.809 28.2301C171.781 28.2301 170.861 27.9659 170.048 27.4375C169.236 26.9091 168.594 26.142 168.122 25.1364C167.65 24.1307 167.415 22.9091 167.415 21.4716C167.415 20.017 167.653 18.7898 168.13 17.7898C168.613 16.7841 169.264 16.0256 170.082 15.5142C170.9 14.9972 171.812 14.7386 172.818 14.7386C173.585 14.7386 174.216 14.8693 174.71 15.1307C175.204 15.3864 175.596 15.696 175.886 16.0597C176.176 16.4176 176.4 16.7557 176.559 17.0739H176.687V10.5455H179.781V28H176.747V25.9375H176.559C176.4 26.2557 176.17 26.5937 175.869 26.9517C175.568 27.304 175.17 27.6051 174.676 27.8551C174.182 28.1051 173.559 28.2301 172.809 28.2301ZM173.67 25.6989C174.324 25.6989 174.88 25.5227 175.341 25.1705C175.801 24.8125 176.15 24.3153 176.389 23.679C176.628 23.0426 176.747 22.3011 176.747 21.4545C176.747 20.608 176.628 19.8722 176.389 19.2472C176.156 18.6222 175.809 18.1364 175.349 17.7898C174.895 17.4432 174.335 17.2699 173.67 17.2699C172.983 17.2699 172.409 17.4489 171.949 17.8068C171.488 18.1648 171.142 18.6591 170.909 19.2898C170.676 19.9205 170.559 20.642 170.559 21.4545C170.559 22.2727 170.676 23.0028 170.909 23.6449C171.147 24.2812 171.497 24.7841 171.957 25.1534C172.423 25.517 172.994 25.6989 173.67 25.6989ZM204.338 16.4347H201.151C201.06 15.9119 200.892 15.4489 200.648 15.0455C200.404 14.6364 200.1 14.2898 199.736 14.0057C199.373 13.7216 198.958 13.5085 198.492 13.3665C198.032 13.2188 197.535 13.1449 197 13.1449C196.052 13.1449 195.211 13.3835 194.478 13.8608C193.745 14.3324 193.171 15.0256 192.756 15.9403C192.341 16.8494 192.134 17.9602 192.134 19.2727C192.134 20.608 192.341 21.733 192.756 22.6477C193.177 23.5568 193.75 24.2443 194.478 24.7102C195.211 25.1705 196.049 25.4006 196.992 25.4006C197.515 25.4006 198.003 25.3324 198.458 25.196C198.918 25.054 199.33 24.8466 199.694 24.5739C200.063 24.3011 200.373 23.9659 200.623 23.5682C200.878 23.1705 201.054 22.7159 201.151 22.2045L204.338 22.2216C204.219 23.0511 203.961 23.8295 203.563 24.5568C203.171 25.2841 202.657 25.9261 202.02 26.483C201.384 27.0341 200.64 27.4659 199.787 27.7784C198.935 28.0852 197.989 28.2386 196.949 28.2386C195.415 28.2386 194.046 27.8835 192.841 27.1733C191.637 26.4631 190.688 25.4375 189.995 24.0966C189.302 22.7557 188.955 21.1477 188.955 19.2727C188.955 17.392 189.304 15.7841 190.003 14.4489C190.702 13.108 191.654 12.0824 192.858 11.3722C194.063 10.6619 195.427 10.3068 196.949 10.3068C197.921 10.3068 198.824 10.4432 199.66 10.7159C200.495 10.9886 201.239 11.3892 201.892 11.9176C202.546 12.4403 203.083 13.0824 203.503 13.8438C203.929 14.5994 204.208 15.4631 204.338 16.4347ZM210.985 28.2642C210.155 28.2642 209.408 28.1165 208.743 27.821C208.084 27.5199 207.561 27.0767 207.175 26.4915C206.794 25.9062 206.604 25.1847 206.604 24.3267C206.604 23.5881 206.74 22.9773 207.013 22.4943C207.286 22.0114 207.658 21.625 208.13 21.3352C208.601 21.0455 209.133 20.8267 209.723 20.679C210.32 20.5256 210.936 20.4148 211.573 20.3466C212.34 20.267 212.962 20.196 213.439 20.1335C213.917 20.0653 214.263 19.9631 214.479 19.8267C214.701 19.6847 214.811 19.4659 214.811 19.1705V19.1193C214.811 18.4773 214.621 17.9801 214.24 17.6278C213.86 17.2756 213.311 17.0994 212.596 17.0994C211.84 17.0994 211.24 17.2642 210.797 17.5938C210.36 17.9233 210.064 18.3125 209.911 18.7614L207.03 18.3523C207.258 17.5568 207.633 16.892 208.155 16.358C208.678 15.8182 209.317 15.4148 210.073 15.1477C210.829 14.875 211.664 14.7386 212.579 14.7386C213.209 14.7386 213.837 14.8125 214.462 14.9602C215.087 15.108 215.658 15.3523 216.175 15.6932C216.692 16.0284 217.107 16.4858 217.419 17.0653C217.738 17.6449 217.897 18.3693 217.897 19.2386V28H214.931V26.2017H214.829C214.641 26.5653 214.377 26.9062 214.036 27.2244C213.701 27.5369 213.277 27.7898 212.766 27.983C212.26 28.1705 211.667 28.2642 210.985 28.2642ZM211.786 25.9972C212.405 25.9972 212.942 25.875 213.397 25.6307C213.851 25.3807 214.201 25.0511 214.445 24.642C214.695 24.233 214.82 23.7869 214.82 23.304V21.7614C214.723 21.8409 214.559 21.9148 214.326 21.983C214.098 22.0511 213.843 22.1108 213.559 22.1619C213.275 22.2131 212.993 22.2585 212.715 22.2983C212.436 22.3381 212.195 22.3722 211.99 22.4006C211.53 22.4631 211.118 22.5653 210.755 22.7074C210.391 22.8494 210.104 23.0483 209.894 23.304C209.684 23.554 209.579 23.8778 209.579 24.2756C209.579 24.8438 209.786 25.2727 210.201 25.5625C210.615 25.8523 211.144 25.9972 211.786 25.9972ZM221.119 28V14.9091H224.11V17.0909H224.247C224.485 16.3352 224.895 15.7528 225.474 15.3438C226.059 14.929 226.727 14.7216 227.477 14.7216C227.647 14.7216 227.838 14.7301 228.048 14.7472C228.264 14.7585 228.443 14.7784 228.585 14.8068V17.6449C228.454 17.5994 228.247 17.5597 227.963 17.5256C227.684 17.4858 227.414 17.4659 227.153 17.4659C226.591 17.4659 226.085 17.5881 225.636 17.8324C225.193 18.071 224.843 18.4034 224.588 18.8295C224.332 19.2557 224.204 19.7472 224.204 20.304V28H221.119ZM236.011 28.2557C234.698 28.2557 233.565 27.983 232.61 27.4375C231.662 26.8864 230.931 26.108 230.42 25.1023C229.909 24.0909 229.653 22.9006 229.653 21.5312C229.653 20.1847 229.909 19.0028 230.42 17.9858C230.937 16.9631 231.659 16.1676 232.585 15.5994C233.511 15.0256 234.599 14.7386 235.849 14.7386C236.656 14.7386 237.417 14.8693 238.133 15.1307C238.855 15.3864 239.491 15.7841 240.042 16.3239C240.599 16.8636 241.037 17.5511 241.355 18.3864C241.673 19.2159 241.832 20.2045 241.832 21.3523V22.2983H231.102V20.2188H238.875C238.869 19.6278 238.741 19.1023 238.491 18.642C238.241 18.1761 237.892 17.8097 237.443 17.5426C237 17.2756 236.483 17.142 235.892 17.142C235.261 17.142 234.707 17.2955 234.23 17.6023C233.752 17.9034 233.38 18.3011 233.113 18.7955C232.852 19.2841 232.718 19.821 232.713 20.4062V22.2216C232.713 22.983 232.852 23.6364 233.13 24.1818C233.409 24.7216 233.798 25.1364 234.298 25.4261C234.798 25.7102 235.383 25.8523 236.054 25.8523C236.502 25.8523 236.909 25.7898 237.272 25.6648C237.636 25.5341 237.951 25.3438 238.218 25.0938C238.485 24.8438 238.687 24.5341 238.823 24.1648L241.704 24.4886C241.522 25.25 241.176 25.9148 240.664 26.483C240.159 27.0455 239.511 27.483 238.721 27.7955C237.931 28.1023 237.028 28.2557 236.011 28.2557Z" fill="#1856C7"/>
<path fill-rule="evenodd" clip-rule="evenodd" d="M3.33333 0C2.44928 0 1.60143 0.35119 0.976311 0.976311C0.35119 1.60143 0 2.44928 0 3.33333V36.6667C0 37.5507 0.35119 38.3986 0.976311 39.0237C1.60143 39.6488 2.44928 40 3.33333 40H8.88889V36.6667C8.88889 36.372 9.00595 36.0894 9.21433 35.881C9.4227 35.6726 9.70531 35.5556 10 35.5556H14.4444C14.7391 35.5556 15.0217 35.6726 15.2301 35.881C15.4385 36.0894 15.5556 36.372 15.5556 36.6667V40H23.3333V36.6667C23.3333 36.372 23.4504 36.0894 23.6588 35.881C23.8671 35.6726 24.1498 35.5556 24.4444 35.5556H28.8889C29.1836 35.5556 29.4662 35.6726 29.6746 35.881C29.8829 36.0894 30 36.372 30 36.6667V40H36.6667C37.5507 40 38.3986 39.6488 39.0237 39.0237C39.6488 38.3986 40 37.5507 40 36.6667V3.33333C40 2.44928 39.6488 1.60143 39.0237 0.976311C38.3986 0.35119 37.5507 0 36.6667 0H3.33333ZM31.1 31.8167C31.7078 31.2 32.3222 30.5778 32.8889 29.65C33.0311 29.4167 33.1756 29.1933 33.3156 28.9756C33.8222 28.1922 34.2711 27.4978 34.3533 26.7867C34.46 25.8789 34.5267 20.4344 34.2333 19.61C33.9389 18.7867 32.2444 18.3244 31.6589 20.1689C31.37 21.0789 31.2789 22.2489 31.1967 23.3111C31.1111 24.4 31.0356 25.3756 30.7633 25.8356C30.2267 26.7444 28.4989 29.0056 28.4989 29.0056L29.99 26.1756C29.99 26.1756 30.2167 25.7844 30.0978 25.0411C29.9778 24.2967 29.0789 23.2567 28.6567 24.0833C28.2344 24.9089 27.4956 25.6544 27.4956 25.6544L24.8867 28.7978C24.8867 28.7978 24.0367 29.9 24.0133 30.5044C24.0056 30.7067 23.88 31.1556 23.7356 31.6633C23.5744 32.2367 23.3911 32.8856 23.3333 33.3411V34.4444H29.7478V33.3411C30.1789 32.7489 30.6378 32.2856 31.1 31.8167ZM9.08556 33.3411C8.65333 32.7489 8.19333 32.2856 7.73 31.8167C7.11889 31.2 6.50333 30.5778 5.93444 29.65C5.79222 29.4167 5.64667 29.1933 5.50667 28.9756C4.99889 28.1922 4.54889 27.4978 4.46444 26.7867C4.35778 25.8789 4.69 20.4344 4.98444 19.61C5.28 18.7867 6.98 18.3244 7.56778 20.1689C7.85667 21.0789 7.94889 22.2489 8.03222 23.3111C8.11667 24.4 8.19333 25.3756 8.46556 25.8356C9.00445 26.7444 10.7378 29.0056 10.7378 29.0056L9.24222 26.1756C9.24222 26.1756 9.01444 25.7844 9.13444 25.0411C9.25444 24.2967 10.1567 23.2567 10.58 24.0833C11.0044 24.9089 11.7456 25.6544 11.7456 25.6544L14.3622 28.7978C14.3622 28.7978 15.2156 29.9 15.2389 30.5044C15.2556 30.9344 15.4467 32.4822 15.5556 33.3411V34.4444H9.08556V33.3411ZM15.3122 5.55556C12.2422 5.55556 10 8.87333 10 12.4522C10 20.4411 20 25.5556 20 25.5556C20 25.5556 30 20.1111 30 12.4522C30 8.87445 27.7578 5.55556 24.6878 5.55556C22.5567 5.55556 20.9767 7.04444 20 9.15556C19.0244 7.04444 17.4433 5.55556 15.3122 5.55556Z" fill="#1856C7"/>
</svg>
